PathFileType	4	(X/Y/Z)	C:\Git\research_data\torsion_deformities_healthy_kinematics\simulations\P03\pre\Static01\markers.trc
DataRate	CameraRate	NumFrames	NumMarkers	Units	OrigDataRate	OrigDataStartFrame	OrigNumFrames
150.000000	150.000000	4	104	mm	150.000000	112	150
Frame#	Time	LFHD			LBHD			RFHD			RBHD			C7			T10			CLAV			STRN			RBAK			LSHO			LUPA			LELB			LFRA			LWRB			LWRA			LFIN			RSHO			RUPA			RELB			RFRA			RWRB			RWRA			RFIN			SACR			LASI			RASI			LT1			LT2			LT3			LS1			LS2			LS3			LHEE			LTOE			RT1			RT2			RT3			RS1			RS2			RS3			RHEE			RTOE			LKNE			LKNM			LANK			LANM			RKNM			RKNE			RANM			RANK			SACO			SACA			SACL			SACP			LKJC			RKJC			LAJC			RAJC			LMMA			RMMA			LTHI			RTHI			LTIB			RTIB			funktRKJC			funktLKJC			funktRHIP			funktLHIP			LHJC			RHJC			LPelvisAngles			RPelvisAngles			LFootProgressAngles			RFootProgressAngles			LHipAngles			RHipAngles			LKneeAngles			RKneeAngles			LAnkleAngles			RAnkleAngles			LFFootAngles			RFFootAngles			LAbsAnkleAngle			RAbsAnkleAngle			RNeckAngles			LNeckAngles			RSpineAngles			LSpineAngles			LShoulderAngles			LElbowAngles			LWristAngles			RShoulderAngles			RElbowAngles			RWristAngles			RThoraxAngles			LThoraxAngles			RHeadAngles			LHeadAngles			LNormalisedGRF			RNormalisedGRF			LGroundReactionForce			RGroundReactionForce			LGRF			RGRF			
		X1	Y1	Z1	X2	Y2	Z2	X3	Y3	Z3	X4	Y4	Z4	X5	Y5	Z5	X6	Y6	Z6	X7	Y7	Z7	X8	Y8	Z8	X9	Y9	Z9	X10	Y10	Z10	X11	Y11	Z11	X12	Y12	Z12	X13	Y13	Z13	X14	Y14	Z14	X15	Y15	Z15	X16	Y16	Z16	X17	Y17	Z17	X18	Y18	Z18	X19	Y19	Z19	X20	Y20	Z20	X21	Y21	Z21	X22	Y22	Z22	X23	Y23	Z23	X24	Y24	Z24	X25	Y25	Z25	X26	Y26	Z26	X27	Y27	Z27	X28	Y28	Z28	X29	Y29	Z29	X30	Y30	Z30	X31	Y31	Z31	X32	Y32	Z32	X33	Y33	Z33	X34	Y34	Z34	X35	Y35	Z35	X36	Y36	Z36	X37	Y37	Z37	X38	Y38	Z38	X39	Y39	Z39	X40	Y40	Z40	X41	Y41	Z41	X42	Y42	Z42	X43	Y43	Z43	X44	Y44	Z44	X45	Y45	Z45	X46	Y46	Z46	X47	Y47	Z47	X48	Y48	Z48	X49	Y49	Z49	X50	Y50	Z50	X51	Y51	Z51	X52	Y52	Z52	X53	Y53	Z53	X54	Y54	Z54	X55	Y55	Z55	X56	Y56	Z56	X57	Y57	Z57	X58	Y58	Z58	X59	Y59	Z59	X60	Y60	Z60	X61	Y61	Z61	X62	Y62	Z62	X63	Y63	Z63	X64	Y64	Z64	X65	Y65	Z65	X66	Y66	Z66	X67	Y67	Z67	X68	Y68	Z68	X69	Y69	Z69	X70	Y70	Z70	X71	Y71	Z71	X72	Y72	Z72	X73	Y73	Z73	X74	Y74	Z74	X75	Y75	Z75	X76	Y76	Z76	X77	Y77	Z77	X78	Y78	Z78	X79	Y79	Z79	X80	Y80	Z80	X81	Y81	Z81	X82	Y82	Z82	X83	Y83	Z83	X84	Y84	Z84	X85	Y85	Z85	X86	Y86	Z86	X87	Y87	Z87	X88	Y88	Z88	X89	Y89	Z89	X90	Y90	Z90	X91	Y91	Z91	X92	Y92	Z92	X93	Y93	Z93	X94	Y94	Z94	X95	Y95	Z95	X96	Y96	Z96	X97	Y97	Z97	X98	Y98	Z98	X99	Y99	Z99	X100	Y100	Z100	X101	Y101	Z101	X102	Y102	Z102	X103	Y103	Z103	X104	Y104	Z104	

113	0.7466666666666667	390.5221557617186	1435.907104492188	-1142.150146484375	366.840118408203	1419.582275390625	-1003.207702636719	506.6647644042967	1437.042114257812	-1146.480346679688	515.4188232421873	1420.454345703125	-993.1915283203125	446.3876953124999	1273.632202148438	-967.1968994140625	444.1110229492186	1094.756713867188	-915.0211181640625	432.0999755859374	1209.760864257812	-1097.200073242188	427.3787841796874	1156.28076171875	-1128.630859375	542.9069213867185	1175.677490234375	-933.0510864257812	315.546173095703	1262.706420898438	-1043.009399414062	219.2368927001952	1047.692626953125	-979.2241821289062	189.9002532958983	974.5372314453125	-968.3414306640625	145.8454742431639	891.997314453125	-984.34814453125	89.72728729248037	772.4751586914062	-1029.699584960938	127.437400817871	776.986572265625	-1085.357421875	82.37956237792957	719.5391235351562	-1116.36767578125	564.5592651367185	1247.639770507812	-1061.29443359375	652.225158691406	1073.423095703125	-1049.41650390625	704.792541503906	954.4739379882812	-1026.73876953125	756.2440185546874	824.91064453125	-1086.4990234375	775.5535888671874	744.6094360351562	-1098.084106445312	723.2224121093749	740.8362426757812	-1140.4765625	768.0062255859374	693.1746215820312	-1181.739868164062	428.5787353515624	874.78271484375	-915.1027221679688	278.1000671386718	870.615234375	-1072.054931640625	521.5111083984374	876.1836547851562	-1122.424560546875	242.2490692138671	585.9920654296875	-1128.260498046875	229.5204925537109	474.2008056640625	-1079.701171875	275.7545776367186	531.6553344726562	-1203.1220703125	282.0945129394531	217.0430297851563	-1033.1435546875	342.1629333496093	148.6560821533203	-950.2413330078125	254.0188598632812	131.4951477050782	-1062.009155273438	367.9380493164062	41.80792236328127	-973.7589111328125	262.1383666992187	41.30332565307619	-1083.037231445312	592.2685546874999	605.7516479492188	-1132.963012695312	585.2189331054686	506.7434387207032	-1057.731201171875	583.0075073242186	533.3832397460938	-1199.050170898438	587.1181640624999	266.0286254882813	-1091.416259765625	562.1487426757811	217.2893676757813	-982.9962158203125	582.3281249999999	175.5245208740235	-1118.066772460938	500.0402526855468	44.98735427856448	-981.8571166992188	570.3867797851561	41.89088058471683	-1123.4052734375	267.0195007324218	432.5512390136719	-1147.854736328125	366.6366577148437	421.6087646484375	-1163.906860351562	304.7817382812499	49.59733581542971	-994.133544921875	356.7976989746093	47.25610733032229	-1044.829711914062	466.1627807617187	423.1027526855469	-1167.840698242188	568.7797851562499	438.7482299804688	-1167.49365234375	490.5005798339843	52.74843597412112	-1062.764526367188	552.1943969726561	47.6824989318848	-1019.144348144531	423.293243408203	874.3934326171875	-983.6261596679688	422.1188659667968	874.34375	-989.3068237304688	417.6140136718749	874.2635498046875	-982.450927734375	421.9206542968749	932.3869018554688	-983.8496704101562	316.8280639648437	427.0800170898438	-1155.880859375	517.4712524414061	430.9254760742188	-1167.667114257812	330.7897033691406	48.42671966552737	-1019.481689453125	521.3474731445311	50.21546936035159	-1040.954467773438	356.7976989746093	47.25610733032229	-1044.829711914062	490.5005798339843	52.74843597412112	-1062.764526367188	224.222686767578	611.1118774414062	-1083.79443359375	602.4828491210936	623.1422119140625	-1117.102661132812	241.9454956054687	243.8563995361328	-1008.8544921875	613.5803833007811	243.501937866211	-1041.203369140625	0	0	0	0	0	0	0	0	0	0	0	0	353.552276611328	782.2974853515625	-1043.678588867188	467.2640686035155	784.0780029296875	-1066.638671875	-1.356172919273376	-11.68322467803955	0.220857933163643	1.356172919273376	11.68322467803955	0.2208579331636428	13.01582717895508	-44.0702018737793	0.2562929689884178	9.306699752807619	-26.41732406616211	1.234322547912597	-3.243350505828857	4.745308876037598	18.7861442565918	-9.581843376159666	-9.566282272338867	14.5428524017334	2.282459974288945	-33.89789581298828	38.00428771972656	7.106647014617923	-30.30656051635742	34.37295150756836	1.286764979362489	-2.58955454826355	15.34983253479004	-0.4111883342266077	5.107452392578125	15.14009475708008	2.385416091881692e-15	-1.590277359294755e-15	-4.721135596077673e-16	1.838758180140948e-15	1.125914659857812e-31	2.186631435204737e-15	9.292555457081301e-16	0	15.17589473724365	9.191277441485235e-16	0	15.01049518585205	-1.693513870239259	8.276167869567871	-11.60153961181641	1.693513870239258	-8.276167869567871	-11.60153961181641	3.507068395614624	6.525246143341064	4.58228874206543	-3.507068395614623	-6.525246143341064	4.58228874206543	18.60107231140137	-10.83748054504394	-9.836616516113283	2.663832859452546e-17	4.198332220067824e-13	39.39183807373047	-13.5168743133545	129.8810729980469	16.27719879150391	25.02024269104004	1.376828789711	-8.078010559082033	1.440076012384895e-15	-4.993470914538278e-13	36.50382614135742	-0.613458752632148	132.7796020507812	19.17303276062012	-1.718227624893188	5.313775062561035	5.101911067962646	1.718227624893189	-5.313775062561035	5.101911067962646	0.5688015818595893	-2.906087636947632	6.396994590759277	-0.5688015818595884	2.906087636947632	6.396994590759277	0	0	0	0	0	0	0	0	0	0	0	0	0	0	0	0	0	0	
114	0.7533333333333334	390.5982360839842	1435.854614257812	-1142.177368164062	366.9080810546873	1419.511596679688	-1003.234375	506.7318725585936	1437.005981445312	-1146.506713867188	515.4871826171873	1420.393798828125	-993.2113037109375	446.3380737304686	1273.607177734375	-967.165771484375	443.938751220703	1094.710205078125	-914.9830932617188	432.1650390624999	1209.692138671875	-1097.154174804688	427.4378967285155	1156.192626953125	-1128.583374023438	542.7689819335935	1175.565063476562	-932.9016723632812	315.5698852539061	1262.7001953125	-1043.121704101562	219.186309814453	1047.71728515625	-979.2469482421875	189.8127288818358	974.5632934570312	-968.3474731445312	145.7732696533202	892.01123046875	-984.4656982421875	89.60102844238271	772.5802001953125	-1029.903076171875	127.4417266845702	777.0582885742188	-1085.494140625	82.3963165283202	719.6616821289062	-1116.6083984375	564.630676269531	1247.50927734375	-1061.106567382812	652.2330932617185	1073.27099609375	-1049.202270507812	704.7209472656248	954.2754516601562	-1026.644897460938	756.1638183593749	824.7179565429688	-1086.385498046875	775.4606323242186	744.4183959960938	-1097.94189453125	723.1262207031249	740.6036987304688	-1140.298828125	767.8372802734374	692.8477783203125	-1181.501220703125	428.590606689453	874.8112182617188	-915.2033081054688	278.0128173828124	870.536376953125	-1072.122314453125	521.4226684570311	876.1571044921875	-1122.6005859375	242.2473907470702	585.9461059570312	-1128.340454101562	229.5354919433593	474.1435546875	-1079.771728515625	275.7870178222655	531.6156005859375	-1203.19091796875	282.1030273437499	217.0220489501953	-1033.2109375	342.1629028320312	148.6417999267578	-950.2943725585938	254.0431518554687	131.463607788086	-1062.076904296875	367.9517211914062	41.80963134765627	-973.764892578125	262.1660766601562	41.31512451171876	-1083.059814453125	592.2858886718749	605.7361450195312	-1132.975952148438	585.1536254882811	506.7614440917969	-1057.712036132812	583.0860595703124	533.3450317382812	-1199.042236328125	587.1427612304686	266.0280456542969	-1091.409057617188	562.1649780273436	217.296859741211	-983.023681640625	582.3470458984374	175.5190582275391	-1118.072265625	500.0307617187499	44.98684692382815	-981.8583374023438	570.3799438476561	41.90066528320316	-1123.406127929688	267.0404663085937	432.5233764648438	-1147.933837890625	366.6543579101562	421.5784912109375	-1163.938598632812	304.8089904785156	49.60765457153322	-994.1527709960938	356.8198852539062	47.22166442871096	-1044.850463867188	466.2078247070312	423.0787658691407	-1167.925415039062	568.8158569335936	438.7398986816407	-1167.496948242188	490.4913024902343	52.75333404541018	-1062.764770507812	552.1892089843749	47.69001388549808	-1019.138793945312	423.2526855468749	874.3927001953125	-983.7582397460938	422.0759277343749	874.3403930664062	-989.4384155273438	417.5739746093749	874.2615966796875	-982.58056640625	421.8627624511718	932.3856811523438	-984.0042114257812	316.8474121093749	427.0509338378906	-1155.936279296875	517.5118408203124	430.9093322753907	-1167.711181640625	330.8144531249999	48.41465759277346	-1019.501586914062	521.3402709960936	50.22167587280276	-1040.951782226562	356.8198852539062	47.22166442871096	-1044.850463867188	490.4913024902343	52.75333404541018	-1062.764770507812	224.2127990722655	611.07421875	-1083.908203125	602.4746704101561	623.1273803710938	-1117.098388671875	241.9849090576171	243.8489074707032	-1008.876831054688	613.5935058593749	243.4943084716797	-1041.222045898438	0	0	0	0	0	0	0	0	0	0	0	0	353.5137329101561	782.2523803710938	-1043.744995117188	467.215362548828	784.0573120117188	-1066.75341796875	-1.373157739639282	-11.70716381072998	0.2429381906986237	1.373157739639282	11.70716381072998	0.2429381906986236	13.03409290313721	-44.06756973266602	0.2363947480916969	9.305912017822267	-26.4166316986084	1.231584191322326	-3.23878264427185	4.797652721405029	18.8101863861084	-9.587985992431639	-9.636429786682129	14.55023384094238	2.291403055191044	-33.93531036376953	38.00704956054688	7.10142278671265	-30.26363945007324	34.37498092651367	1.285454630851747	-2.578712463378906	15.36871147155762	-0.4116901457309717	5.108017444610596	15.15234088897705	1.110088092276659e-14	6.79732914489101e-31	-1.987846699118451e-16	-2.360567956857513e-15	-1.445430996267681e-31	3.975693398236889e-16	9.298318529696346e-16	0	15.18530654907227	9.199028304067003e-16	0	15.02315330505371	-1.729940056800843	8.223567962646484	-11.61247730255127	1.729940056800842	-8.223567962646484	-11.61247730255127	3.548743009567261	6.605777740478516	4.560577392578125	-3.54874300956726	-6.605777740478516	4.560577392578125	18.58204078674316	-10.84547996520996	-9.875741958618166	4.800976824366171e-15	8.126317002123129e-13	39.44910049438477	-13.53778553009034	129.9502868652344	16.29263687133789	25.03310585021973	1.404389858245851	-8.034754753112795	5.41349478092781e-15	-9.907427525948642e-13	36.46667861938477	-0.6988850235939095	132.8175506591797	19.11559867858887	-1.749473571777344	5.258716106414795	5.103093147277832	1.749473571777344	-5.258716106414795	5.103093147277832	0.5748635530471808	-2.907308101654053	6.404767036437988	-0.57486355304718	2.907308101654053	6.404767036437988	0	0	0	0	0	0	0	0	0	0	0	0	0	0	0	0	0	0	
115	0.76	390.6737365722655	1435.802856445312	-1142.193115234375	366.985382080078	1419.441284179688	-1003.247680664062	506.7985534667967	1436.971435546875	-1146.525634765625	515.5621337890623	1420.332885742188	-993.2236328125	446.2948303222655	1273.582641601562	-967.1285400390625	443.7633056640624	1094.659790039062	-914.94970703125	432.2337036132811	1209.626342773438	-1097.10498046875	427.5015869140624	1156.10302734375	-1128.529663085938	542.628479003906	1175.447143554688	-932.7420654296875	315.6024169921874	1262.692993164062	-1043.232421875	219.1252441406249	1047.743896484375	-979.2794799804688	189.7101593017577	974.5956420898438	-968.3692626953125	145.6476287841796	892.0736694335938	-984.5498657226562	89.46717834472646	772.6812133789062	-1030.1025390625	127.4422149658202	777.1337890625	-1085.644775390625	82.39533233642567	719.7818603515625	-1116.836059570312	564.7150878906248	1247.365234375	-1060.925170898438	652.2387084960935	1073.099853515625	-1048.99462890625	704.6499023437498	954.0612182617188	-1026.562622070312	756.1005859374999	824.5138549804688	-1086.306274414062	775.3859252929686	744.2197875976562	-1097.835205078125	723.0475463867186	740.3748779296875	-1140.158935546875	767.6990356445311	692.5338134765625	-1181.314208984375	428.597686767578	874.8450317382812	-915.302490234375	277.917510986328	870.4581298828125	-1072.190551757812	521.3255004882811	876.1343383789062	-1122.7841796875	242.2464752197265	585.900634765625	-1128.415771484375	229.5650482177734	474.0959777832031	-1079.829956054688	275.8177795410155	531.5751342773438	-1203.257568359375	282.1138000488281	217.0060119628907	-1033.276123046875	342.1669616699218	148.6315155029297	-950.3544311523438	254.0671997070312	131.436767578125	-1062.14013671875	367.9641113281249	41.81309890747072	-973.7709350585938	262.1929016113281	41.32689285278322	-1083.0830078125	592.3010864257811	605.7207641601562	-1132.984130859375	585.0820922851561	506.7783203125001	-1057.686645507812	583.1624755859374	533.3123779296875	-1199.030151367188	587.1658325195311	266.0266418457032	-1091.3974609375	562.1768798828124	217.305892944336	-983.0479736328125	582.3645019531249	175.5133361816407	-1118.079467773438	500.0197448730468	44.98627090454104	-981.8580322265625	570.3701171874999	41.91147994995121	-1123.406616210938	267.0681762695312	432.5031127929688	-1148	366.6836547851562	421.5576171875	-1163.963134765625	304.8334960937499	49.61925125122072	-994.1712646484375	356.8410644531249	47.18818283081057	-1044.869873046875	466.2538452148437	423.0562133789063	-1168.008178710938	568.8538208007811	438.7341308593751	-1167.496704101562	490.4794616699218	52.75550460815433	-1062.763671875	552.1817626953124	47.69958496093754	-1019.131530761719	423.2066955566405	874.39599609375	-983.8950805664062	422.0274353027343	874.3410034179688	-989.57470703125	417.5285644531249	874.2635498046875	-982.71484375	421.7980957031249	932.3883666992188	-984.1641235351562	316.8759155273437	427.0303649902344	-1155.981567382812	517.5538330078124	430.8951721191407	-1167.75244140625	330.8372802734374	48.40371704101565	-1019.5205078125	521.3305664062499	50.22754669189456	-1040.947509765625	356.8410644531249	47.18818283081057	-1044.869873046875	490.4794616699218	52.75550460815433	-1062.763671875	224.2083435058593	611.0362548828125	-1084.013549804688	602.4640502929686	623.1171264648438	-1117.09326171875	242.0256805419921	243.8458557128907	-1008.894348144531	613.6052856445311	243.4868927001953	-1041.236572265625	0	0	0	0	0	0	0	0	0	0	0	0	353.4696960449218	782.20947265625	-1043.81298828125	467.1604919433593	784.0403442382812	-1066.872802734375	-1.391079664230346	-11.73260593414307	0.2657887339591981	1.391079664230346	11.73260593414307	0.2657887339591979	13.0512809753418	-44.06381225585938	0.2174103260040275	9.304883956909181	-26.41534805297852	1.227833628654479	-3.23266053199768	4.848447799682617	18.83343887329102	-9.594686508178709	-9.709227561950684	14.55684947967529	2.295579195022587	-33.9706916809082	38.00640487670898	7.097287178039554	-30.2205638885498	34.37569427490234	1.2837872505188	-2.567438125610352	15.38495540618896	-0.4126580655574792	5.110189437866211	15.16562938690186	-7.982446965253999e-15	-4.887839062680906e-31	-1.167859910916667e-15	-4.124781943684163e-15	-2.525700502256804e-31	3.97569339823689e-16	9.302439514947573e-16	0	15.19203662872314	9.207157570849253e-16	0	15.0364294052124	-1.768950819969178	8.167062759399414	-11.6217622756958	1.768950819969177	-8.167062759399414	-11.6217622756958	3.593110322952271	6.688468456268311	4.535866737365723	-3.59311032295227	-6.688468456268311	4.535866737365723	18.56648254394531	-10.84242916107178	-9.915261268615724	8.285451239648697e-16	-1.380360777937517e-12	39.50236892700195	-13.5451192855835	130.003173828125	16.30113220214844	25.04597473144531	1.419648766517641	-7.990522861480715	3.423436312369106e-15	-1.932187049247247e-12	36.43055725097656	-0.7808987498283455	132.8629913330078	19.06485366821289	-1.782749056816101	5.203031539916992	5.102172374725342	1.782749056816102	-5.203031539916992	5.102172374725342	0.5807269215583808	-2.905215740203857	6.412989616394043	-0.5807269215583799	2.905215740203857	6.412989616394043	0	0	0	0	0	0	0	0	0	0	0	0	0	0	0	0	0	0	
116	0.7666666666666667	390.7496337890623	1435.752319335938	-1142.19677734375	367.0729675292967	1419.374877929688	-1003.248107910156	506.8672485351561	1436.937622070312	-1146.533935546875	515.6447753906248	1420.273559570312	-993.22900390625	446.2644958496093	1273.557250976562	-967.0890502929688	443.5900268554686	1094.60546875	-914.9237060546875	432.3052368164061	1209.56591796875	-1097.05517578125	427.568878173828	1156.016967773438	-1128.474731445312	542.4921264648435	1175.323974609375	-932.582275390625	315.6442871093749	1262.688232421875	-1043.337280273438	219.0540771484374	1047.774780273438	-979.325927734375	189.5914764404296	974.6351318359375	-968.4075927734375	145.4977874755858	892.1612548828125	-984.6192626953125	89.34053802490224	772.7747802734375	-1030.297241210938	127.4400329589843	777.2162475585938	-1085.807495117188	82.38018798828114	719.901123046875	-1117.051025390625	564.8118896484373	1247.2109375	-1060.756591796875	652.2407226562498	1072.9150390625	-1048.797241210938	704.576721191406	953.8364868164062	-1026.491821289062	756.0506591796874	824.2998657226562	-1086.249633789062	775.3721313476561	744.021484375	-1097.775146484375	722.9849243164061	740.1536254882812	-1140.06103515625	767.5979003906249	692.250244140625	-1181.184692382812	428.6008300781249	874.8809204101562	-915.4022827148438	277.8202514648436	870.3824462890625	-1072.256713867188	521.2238159179686	876.116455078125	-1122.971069335938	242.249298095703	585.8573608398438	-1128.486083984375	229.6061859130859	474.0578918457031	-1079.881591796875	275.8512268066405	531.5350341796875	-1203.32373046875	282.1268005371093	216.9936981201172	-1033.337890625	342.1723022460937	148.6256408691407	-950.4197387695312	254.0910644531249	131.4157409667969	-1062.198974609375	367.9754638671874	41.81737899780276	-973.77783203125	262.2193298339843	41.33766555786134	-1083.105590820312	592.3129882812499	605.7064819335938	-1132.99072265625	585.0090332031249	506.7932128906251	-1057.659057617188	583.2332763671874	533.2835693359375	-1199.015869140625	587.1854248046874	266.0239562988282	-1091.385375976562	562.1812744140624	217.3168640136719	-983.0672607421875	582.3790893554686	175.506576538086	-1118.087768554688	500.0072937011718	44.98569107055667	-981.8561401367188	570.3576049804686	41.92271804809574	-1123.40673828125	267.1074218749999	432.4830017089844	-1148.050048828125	366.7312622070312	421.5443420410156	-1163.98583984375	304.8545532226562	49.63135528564455	-994.1901245117188	356.8611755371093	47.15645980834963	-1044.88720703125	466.2982482910156	423.0338745117188	-1168.088745117188	568.8908081054686	438.7312011718751	-1167.494995117188	490.4656372070312	52.7543754577637	-1062.759765625	552.1722412109374	47.71069335937504	-1019.122863769531	423.1600341796874	874.4021606445312	-984.0330200195312	421.9780883789061	874.3445434570312	-989.7120361328125	417.4824829101561	874.2684326171875	-982.8500366210938	421.7333679199218	932.3939819335938	-984.324462890625	316.9193420410156	427.013671875	-1156.017944335938	517.5945434570311	430.8825378417969	-1167.791870117188	330.8578796386718	48.39390945434572	-1019.538635253906	521.3189086914061	50.23253250122073	-1040.94140625	356.8611755371093	47.15645980834963	-1044.88720703125	490.4656372070312	52.7543754577637	-1062.759765625	224.2138671874999	610.9921875	-1084.100341796875	602.4520874023436	623.1101684570312	-1117.090087890625	242.068862915039	243.8456420898438	-1008.911499023438	613.6156616210936	243.4796752929688	-1041.248291015625	0	0	0	0	0	0	0	0	0	0	0	0	353.4244384765624	782.16943359375	-1043.881591796875	467.1038208007811	784.0272827148438	-1066.995361328125	-1.409462094306945	-11.75937271118164	0.2880257666110994	1.409462094306945	11.75937271118164	0.2880257666110991	13.06753826141358	-44.05912780761719	0.2003383636474601	9.304026603698732	-26.41323089599609	1.223118901252746	-3.2245454788208	4.892012596130371	18.85446929931641	-9.601057052612303	-9.782858848571777	14.56186771392822	2.290493488311772	-33.99832916259766	38.00279235839844	7.093712806701664	-30.17824745178223	34.37543869018555	1.282179236412049	-2.557587862014771	15.39747428894043	-0.4138881862163538	5.113218307495117	15.17990398406982	-6.671710489706542e-15	-3.180554718589511e-15	1.04361955343313e-15	1.41634073176286e-15	4.770832183763384e-15	-1.987846778527783e-15	9.304721619292451e-16	0	15.19576358795166	9.215356912483445e-16	0	15.04981994628906	-1.810343146324159	8.109153747558594	-11.62816905975342	1.810343146324157	-8.109153747558594	-11.62816905975342	3.640364408493042	6.770902156829834	4.509198665618896	-3.640364408493041	-6.770902156829834	4.509198665618896	18.55447006225586	-10.82254791259765	-9.954007148742678	-7.58754988453754e-16	-1.377180162444314e-12	39.55099105834961	-13.53374195098877	130.0267333984375	16.3054256439209	25.05795097351074	1.408325195312502	-7.946719169616701	2.626057780400957e-15	1.431249528074073e-14	36.39397811889648	-0.8733437657356332	132.9469299316406	19.02776718139648	-1.818432211875916	5.149028301239014	5.098937034606934	1.818432211875916	-5.149028301239014	5.098937034606934	0.585798621177674	-2.900130748748779	6.420660018920898	-0.5857986211776731	2.900130748748779	6.420660018920898	0	0	0	0	0	0	0	0	0	0	0	0	0	0	0	0	0	0	
